<svg width="8" height="55" viewBox="0 0 8 55" fill="none" xmlns="http://www.w3.org/2000/svg">
<path d="M4.05395 54.2085C5.99948 54.2085 7.57664 52.6298 7.57664 50.6824C7.57664 48.7349 5.99948 47.1562 4.05395 47.1562C2.10842 47.1562 0.53125 48.7349 0.53125 50.6824C0.53125 52.6298 2.10842 54.2085 4.05395 54.2085Z" fill="#4E7BFF"/>
<path d="M4.0624 24.0234C4.66191 24.0234 5.24794 24.2014 5.74642 24.5348C6.24489 24.8682 6.6334 25.3421 6.86282 25.8965C7.09224 26.4509 7.15227 27.0609 7.03531 27.6495C6.91836 28.238 6.62966 28.7787 6.20575 29.203C5.78183 29.6274 5.24174 29.9163 4.65376 30.0334C4.06577 30.1505 3.4563 30.0904 2.90243 29.8607C2.34855 29.6311 1.87516 29.2422 1.54209 28.7432C1.20902 28.2443 1.03125 27.6577 1.03125 27.0576C1.03054 26.6589 1.10844 26.264 1.26051 25.8956C1.41259 25.5272 1.63584 25.1924 1.91745 24.9105C2.19907 24.6286 2.53349 24.4052 2.90158 24.2529C3.26966 24.1007 3.66414 24.0227 4.0624 24.0234Z" fill="#4E7BFF"/>
<path d="M4.0624 4.94288e-06C4.66191 4.94288e-06 5.24794 0.177964 5.74642 0.511357C6.24489 0.844749 6.6334 1.31862 6.86282 1.87304C7.09224 2.42745 7.15227 3.03749 7.03531 3.62605C6.91836 4.21461 6.62966 4.75526 6.20575 5.17959C5.78183 5.60392 5.24174 5.89289 4.65376 6.00996C4.06577 6.12703 3.4563 6.06693 2.90243 5.83729C2.34855 5.60764 1.87516 5.21875 1.54209 4.71979C1.20902 4.22083 1.03125 3.63424 1.03125 3.03415C1.03054 2.6355 1.10844 2.24061 1.26051 1.87217C1.41259 1.50373 1.63584 1.16896 1.91745 0.887071C2.19907 0.605183 2.53349 0.381728 2.90158 0.229504C3.26966 0.0772808 3.66414 -0.00071529 4.0624 4.94288e-06Z" fill="#4E7BFF"/>
</svg>
