<svg width="642" height="54" viewBox="0 0 642 54" fill="none" xmlns="http://www.w3.org/2000/svg">
<path d="M122.579 49.7306C122.579 50.3307 122.401 50.9174 122.068 51.4163C121.735 51.9153 121.262 52.3042 120.708 52.5338C120.154 52.7635 119.544 52.8235 118.956 52.7065C118.368 52.5894 117.828 52.3004 117.404 51.8761C116.98 51.4518 116.692 50.9111 116.575 50.3226C116.458 49.734 116.518 49.1239 116.747 48.5695C116.977 48.0151 117.365 47.5413 117.864 47.2079C118.362 46.8745 118.948 46.6965 119.548 46.6965C120.352 46.6965 121.123 47.0162 121.691 47.5852C122.26 48.1542 122.579 48.9259 122.579 49.7306Z" fill="#212136"/>
<path d="M145.682 49.7307C145.682 50.2324 145.533 50.7229 145.255 51.14C144.976 51.5572 144.58 51.8823 144.117 52.0743C143.654 52.2663 143.145 52.3165 142.653 52.2186C142.161 52.1207 141.71 51.8792 141.356 51.5244C141.001 51.1697 140.76 50.7177 140.662 50.2256C140.564 49.7335 140.614 49.2235 140.806 48.76C140.998 48.2965 141.323 47.9003 141.74 47.6216C142.156 47.3429 142.646 47.1941 143.147 47.1941C143.82 47.1941 144.464 47.4614 144.939 47.9371C145.415 48.4128 145.682 49.058 145.682 49.7307Z" fill="#212136"/>
<path d="M168.789 49.7306C168.789 50.135 168.67 50.5303 168.445 50.8666C168.221 51.2028 167.902 51.4649 167.528 51.6196C167.155 51.7744 166.744 51.8149 166.348 51.736C165.952 51.6571 165.588 51.4623 165.302 51.1764C165.017 50.8905 164.822 50.5262 164.743 50.1295C164.665 49.7329 164.705 49.3218 164.86 48.9482C165.014 48.5746 165.276 48.2553 165.612 48.0306C165.948 47.806 166.343 47.686 166.747 47.686C167.288 47.686 167.808 47.9014 168.191 48.2849C168.574 48.6683 168.789 49.1884 168.789 49.7306Z" fill="#212136"/>
<path d="M190.346 51.2832C191.203 51.2832 191.897 50.588 191.897 49.7306C191.897 48.8731 191.203 48.178 190.346 48.178C189.489 48.178 188.795 48.8731 188.795 49.7306C188.795 50.588 189.489 51.2832 190.346 51.2832Z" fill="#212136"/>
<path d="M213.945 50.7857C214.527 50.7857 214.999 50.3134 214.999 49.7306C214.999 49.1479 214.527 48.6755 213.945 48.6755C213.363 48.6755 212.891 49.1479 212.891 49.7306C212.891 50.3134 213.363 50.7857 213.945 50.7857Z" fill="#212136"/>
<path d="M236.054 50.7857C236.636 50.7857 237.108 50.3134 237.108 49.7306C237.108 49.1479 236.636 48.6755 236.054 48.6755C235.472 48.6755 235 49.1479 235 49.7306C235 50.3134 235.472 50.7857 236.054 50.7857Z" fill="#212136"/>
<path d="M258.163 50.7857C258.745 50.7857 259.217 50.3134 259.217 49.7306C259.217 49.1479 258.745 48.6755 258.163 48.6755C257.581 48.6755 257.109 49.1479 257.109 49.7306C257.109 50.3134 257.581 50.7857 258.163 50.7857Z" fill="#212136"/>
<path d="M280.272 50.7857C280.854 50.7857 281.326 50.3134 281.326 49.7306C281.326 49.1479 280.854 48.6755 280.272 48.6755C279.69 48.6755 279.218 49.1479 279.218 49.7306C279.218 50.3134 279.69 50.7857 280.272 50.7857Z" fill="#212136"/>
<path d="M302.381 50.7857C302.963 50.7857 303.435 50.3134 303.435 49.7306C303.435 49.1479 302.963 48.6755 302.381 48.6755C301.799 48.6755 301.327 49.1479 301.327 49.7306C301.327 50.3134 301.799 50.7857 302.381 50.7857Z" fill="#212136"/>
<path d="M324.49 50.7857C325.072 50.7857 325.544 50.3134 325.544 49.7306C325.544 49.1479 325.072 48.6755 324.49 48.6755C323.907 48.6755 323.436 49.1479 323.436 49.7306C323.436 50.3134 323.907 50.7857 324.49 50.7857Z" fill="#212136"/>
<path d="M346.599 50.7857C347.181 50.7857 347.653 50.3134 347.653 49.7306C347.653 49.1479 347.181 48.6755 346.599 48.6755C346.016 48.6755 345.544 49.1479 345.544 49.7306C345.544 50.3134 346.016 50.7857 346.599 50.7857Z" fill="#212136"/>
<path d="M368.707 50.7857C369.29 50.7857 369.761 50.3134 369.761 49.7306C369.761 49.1479 369.29 48.6755 368.707 48.6755C368.125 48.6755 367.653 49.1479 367.653 49.7306C367.653 50.3134 368.125 50.7857 368.707 50.7857Z" fill="#212136"/>
<path d="M390.816 50.7857C391.398 50.7857 391.87 50.3134 391.87 49.7306C391.87 49.1479 391.398 48.6755 390.816 48.6755C390.234 48.6755 389.762 49.1479 389.762 49.7306C389.762 50.3134 390.234 50.7857 390.816 50.7857Z" fill="#212136"/>
<path d="M412.925 50.7857C413.507 50.7857 413.979 50.3134 413.979 49.7306C413.979 49.1479 413.507 48.6755 412.925 48.6755C412.343 48.6755 411.871 49.1479 411.871 49.7306C411.871 50.3134 412.343 50.7857 412.925 50.7857Z" fill="#212136"/>
<path d="M95.9485 53.2569C97.894 53.2569 99.4711 51.6781 99.4711 49.7307C99.4711 47.7833 97.894 46.2046 95.9485 46.2046C94.003 46.2046 92.4258 47.7833 92.4258 49.7307C92.4258 51.6781 94.003 53.2569 95.9485 53.2569Z" fill="#212136"/>
<path d="M95.9476 23.0742C96.5473 23.0731 97.1339 23.2502 97.6331 23.5829C98.1323 23.9156 98.5216 24.3891 98.7519 24.9435C98.9822 25.4978 99.0429 26.108 98.9266 26.6969C98.8103 27.2858 98.522 27.827 98.0983 28.2519C97.6746 28.6767 97.1346 28.9662 96.5464 29.0837C95.9583 29.2013 95.3485 29.1415 94.7943 28.912C94.2401 28.6826 93.7664 28.2936 93.4331 27.7946C93.0998 27.2955 92.9219 26.7087 92.9219 26.1084C92.9212 25.7102 92.9989 25.3157 93.1506 24.9477C93.3024 24.5796 93.5251 24.245 93.8061 23.9632C94.0872 23.6814 94.421 23.4578 94.7885 23.3053C95.1559 23.1527 95.5498 23.0742 95.9476 23.0742Z" fill="#212136"/>
<path d="M95.9476 4.92732e-06C96.5473 -0.00107674 97.1339 0.175953 97.6331 0.508687C98.1323 0.841422 98.5216 1.31492 98.7519 1.86923C98.9822 2.42355 99.0429 3.03379 98.9266 3.62271C98.8103 4.21163 98.522 4.75278 98.0983 5.17765C97.6746 5.60253 97.1346 5.89201 96.5464 6.00953C95.9583 6.12704 95.3485 6.0673 94.7943 5.83782C94.2401 5.60834 93.7664 5.21943 93.4331 4.72036C93.0998 4.22128 92.9219 3.63447 92.9219 3.03415C92.9212 2.63596 92.9989 2.24152 93.1506 1.87344C93.3024 1.50535 93.5251 1.17082 93.8061 0.889006C94.0872 0.607191 94.421 0.383618 94.7885 0.231072C95.1559 0.0785269 95.5498 4.27863e-06 95.9476 4.92732e-06Z" fill="#212136"/>
<path d="M1.55107 51.2832C2.40771 51.2832 3.10215 50.588 3.10215 49.7306C3.10215 48.8731 2.40771 48.178 1.55107 48.178C0.694439 48.178 0 48.8731 0 49.7306C0 50.588 0.694439 51.2832 1.55107 51.2832Z" fill="#212136"/>
<path d="M25.1506 51.7752C26.2787 51.7752 27.1932 50.8598 27.1932 49.7306C27.1932 48.6014 26.2787 47.686 25.1506 47.686C24.0224 47.686 23.1079 48.6014 23.1079 49.7306C23.1079 50.8598 24.0224 51.7752 25.1506 51.7752Z" fill="#212136"/>
<path d="M51.2841 49.7307C51.2841 50.2324 51.1355 50.7229 50.8571 51.14C50.5786 51.5572 50.1828 51.8823 49.7198 52.0743C49.2567 52.2663 48.7472 52.3165 48.2556 52.2186C47.764 52.1207 47.3125 51.8792 46.9581 51.5244C46.6037 51.1697 46.3623 50.7177 46.2645 50.2256C46.1667 49.7335 46.2169 49.2235 46.4087 48.76C46.6005 48.2965 46.9253 47.9003 47.3421 47.6216C47.7588 47.3429 48.2488 47.1941 48.75 47.1941C49.4221 47.1941 50.0667 47.4614 50.5419 47.9371C51.0172 48.4128 51.2841 49.058 51.2841 49.7307Z" fill="#212136"/>
<path d="M75.3751 49.7306C75.374 50.3294 75.1957 50.9144 74.8625 51.4118C74.5294 51.9091 74.0565 52.2964 73.5035 52.5248C72.9506 52.7532 72.3424 52.8125 71.7558 52.695C71.1692 52.5775 70.6306 52.2886 70.208 51.8648C69.7854 51.4411 69.4978 50.9014 69.3815 50.314C69.2652 49.7267 69.3254 49.118 69.5546 48.5649C69.7837 48.0118 70.1715 47.5391 70.669 47.2066C71.1664 46.874 71.7512 46.6965 72.3494 46.6965C72.7472 46.6965 73.1411 46.7751 73.5086 46.9276C73.876 47.0801 74.2098 47.3037 74.4908 47.5855C74.7719 47.8673 74.9946 48.2019 75.1464 48.57C75.2981 48.938 75.3758 49.3325 75.3751 49.7306Z" fill="#212136"/>
<path d="M549.557 49.7306C549.556 50.3294 549.378 50.9144 549.045 51.4118C548.712 51.9091 548.239 52.2964 547.686 52.5248C547.133 52.7532 546.525 52.8125 545.938 52.695C545.351 52.5775 544.813 52.2886 544.39 51.8648C543.968 51.4411 543.68 50.9014 543.564 50.314C543.447 49.7267 543.508 49.118 543.737 48.5649C543.966 48.0118 544.354 47.5391 544.851 47.2066C545.349 46.874 545.933 46.6965 546.532 46.6965C546.929 46.6965 547.323 46.7751 547.691 46.9276C548.058 47.0801 548.392 47.3037 548.673 47.5855C548.954 47.8673 549.177 48.2019 549.329 48.57C549.48 48.938 549.558 49.3325 549.557 49.7306Z" fill="#1A2135"/>
<path d="M570.109 52.2673C571.508 52.2673 572.643 51.1316 572.643 49.7307C572.643 48.3298 571.508 47.1941 570.109 47.1941C568.709 47.1941 567.575 48.3298 567.575 49.7307C567.575 51.1316 568.709 52.2673 570.109 52.2673Z" fill="#1A2135"/>
<path d="M595.735 49.7306C595.735 50.135 595.615 50.5303 595.39 50.8666C595.166 51.2028 594.847 51.4649 594.474 51.6196C594.1 51.7744 593.69 51.8149 593.294 51.736C592.897 51.6571 592.533 51.4623 592.248 51.1764C591.962 50.8905 591.767 50.5262 591.689 50.1295C591.61 49.7329 591.65 49.3218 591.805 48.9482C591.959 48.5746 592.221 48.2553 592.557 48.0306C592.893 47.806 593.288 47.686 593.692 47.686C594.233 47.6875 594.752 47.9034 595.135 48.2865C595.518 48.6696 595.733 49.1888 595.735 49.7306Z" fill="#1A2135"/>
<path d="M618.82 49.7306C618.82 50.0376 618.729 50.3378 618.559 50.5931C618.389 50.8484 618.146 51.0475 617.863 51.165C617.579 51.2825 617.268 51.3132 616.967 51.2533C616.666 51.1934 616.389 51.0455 616.173 50.8284C615.956 50.6113 615.808 50.3346 615.748 50.0335C615.688 49.7323 615.719 49.4201 615.836 49.1364C615.954 48.8527 616.152 48.6102 616.408 48.4396C616.663 48.269 616.963 48.178 617.269 48.178C617.681 48.178 618.075 48.3415 618.366 48.6327C618.657 48.9239 618.82 49.3188 618.82 49.7306Z" fill="#1A2135"/>
<path d="M640.852 50.7857C641.434 50.7857 641.906 50.3134 641.906 49.7306C641.906 49.1479 641.434 48.6755 640.852 48.6755C640.27 48.6755 639.798 49.1479 639.798 49.7306C639.798 50.3134 640.27 50.7857 640.852 50.7857Z" fill="#1A2135"/>
<path d="M522.954 53.2569C524.899 53.2569 526.477 51.6781 526.477 49.7307C526.477 47.7833 524.899 46.2046 522.954 46.2046C521.008 46.2046 519.431 47.7833 519.431 49.7307C519.431 51.6781 521.008 53.2569 522.954 53.2569Z" fill="#1A2135"/>
<path d="M522.953 23.0195C523.551 23.0206 524.136 23.1992 524.633 23.5326C525.129 23.8661 525.516 24.3395 525.744 24.893C525.973 25.4465 526.032 26.0552 525.914 26.6424C525.797 27.2295 525.509 27.7687 525.085 28.1917C524.662 28.6147 524.123 28.9026 523.536 29.019C522.949 29.1354 522.341 29.0752 521.788 28.8458C521.236 28.6164 520.764 28.2282 520.431 27.7302C520.099 27.2323 519.922 26.6469 519.922 26.0482C519.922 25.65 520 25.2557 520.153 24.8879C520.305 24.5201 520.528 24.186 520.81 23.9047C521.092 23.6234 521.426 23.4004 521.793 23.2485C522.161 23.0966 522.555 23.0188 522.953 23.0195Z" fill="#1A2135"/>
<path d="M522.953 4.93481e-06C523.551 0.00108576 524.136 0.179643 524.633 0.513092C525.129 0.84654 525.516 1.31993 525.744 1.87344C525.973 2.42694 526.032 3.0357 525.914 3.62284C525.797 4.20998 525.509 4.74913 525.085 5.17215C524.662 5.59516 524.123 5.88307 523.536 5.99948C522.949 6.1159 522.341 6.05563 521.788 5.82624C521.236 5.59685 520.764 5.20865 520.431 4.71071C520.099 4.21277 519.922 3.62742 519.922 3.02864C519.922 2.63045 520 2.23617 520.153 1.86837C520.305 1.50056 520.528 1.16644 520.81 0.885135C521.092 0.603828 521.426 0.380852 521.793 0.22897C522.161 0.0770883 522.555 -0.000713816 522.953 4.93481e-06Z" fill="#1A2135"/>
<path d="M430.102 49.7306C430.102 50.0376 430.011 50.3378 429.841 50.5931C429.67 50.8484 429.428 51.0475 429.145 51.165C428.861 51.2825 428.549 51.3132 428.248 51.2533C427.948 51.1934 427.671 51.0455 427.454 50.8284C427.237 50.6113 427.09 50.3346 427.03 50.0335C426.97 49.7323 427.001 49.4201 427.118 49.1364C427.235 48.8527 427.434 48.6102 427.689 48.4396C427.944 48.269 428.244 48.178 428.551 48.178C428.962 48.178 429.357 48.3415 429.648 48.6327C429.939 48.9239 430.102 49.3188 430.102 49.7306Z" fill="#1A2135"/>
<path d="M454.193 49.7306C454.193 50.1353 454.073 50.5308 453.849 50.8671C453.624 51.2035 453.304 51.4656 452.931 51.6202C452.557 51.7748 452.146 51.8149 451.75 51.7356C451.354 51.6562 450.99 51.461 450.704 51.1745C450.419 50.888 450.225 50.5232 450.146 50.1262C450.068 49.7292 450.11 49.3179 450.265 48.9444C450.42 48.5709 450.683 48.252 451.02 48.028C451.356 47.8039 451.752 47.685 452.156 47.686C452.697 47.6875 453.215 47.9035 453.597 48.2868C453.979 48.6701 454.193 49.1893 454.193 49.7306Z" fill="#1A2135"/>
<path d="M475.755 52.2673C477.155 52.2673 478.289 51.1316 478.289 49.7307C478.289 48.3298 477.155 47.1941 475.755 47.1941C474.356 47.1941 473.221 48.3298 473.221 49.7307C473.221 51.1316 474.356 52.2673 475.755 52.2673Z" fill="#1A2135"/>
<path d="M502.38 49.7306C502.38 50.331 502.202 50.9178 501.869 51.4169C501.536 51.916 501.062 52.3048 500.508 52.5343C499.954 52.7638 499.344 52.8236 498.756 52.7061C498.168 52.5885 497.627 52.299 497.204 51.8742C496.78 51.4493 496.492 50.9081 496.375 50.3192C496.259 49.7303 496.32 49.1201 496.55 48.5658C496.78 48.0114 497.17 47.538 497.669 47.2052C498.168 46.8725 498.755 46.6955 499.354 46.6965C499.752 46.6965 500.146 46.7751 500.514 46.9276C500.881 47.0802 501.215 47.3037 501.496 47.5855C501.777 47.8674 502 48.2019 502.151 48.57C502.303 48.9381 502.381 49.3325 502.38 49.7306Z" fill="#1A2135"/>
</svg>
